<?xml version="1.0" encoding="UTF-8"?>
<svg id="Layer_2" data-name="Layer 2" xmlns="http://www.w3.org/2000/svg" xmlns:xlink="http://www.w3.org/1999/xlink" viewBox="0 0 1055.76 262.32">
  <defs>
    <style>
      .cls-1 {
        fill: url(#linear-gradient);
      }

      .cls-2 {
        font-family: Outfit-Bold, Outfit;
        font-size: 120px;
        font-weight: 700;
      }

      .cls-3 {
        fill: #dfeff2;
      }

      .cls-4 {
        stroke: #009399;
      }

      .cls-4, .cls-5 {
        fill: none;
        stroke-linecap: round;
        stroke-linejoin: round;
        stroke-width: 10px;
      }

      .cls-6 {
        letter-spacing: -.12em;
      }

      .cls-7 {
        letter-spacing: -.02em;
      }

      .cls-8 {
        letter-spacing: 0em;
      }

      .cls-5 {
        stroke: #fdc700;
      }
    </style>
    <linearGradient id="linear-gradient" x1="459.02" y1="222.41" x2="312.37" y2="80.79" gradientUnits="userSpaceOnUse">
      <stop offset="0" stop-color="#006616"/>
      <stop offset="1" stop-color="#00737b"/>
    </linearGradient>
  </defs>
  <g id="Layer_1-2" data-name="Layer 1">
    <g>
      <rect class="cls-3" x="0" y="22.05" width="240.27" height="240.27" rx="92.47" ry="92.47"/>
      <g>
        <circle class="cls-4" cx="120.14" cy="142.18" r="19.84"/>
        <path class="cls-4" d="M120.14,92.57v9.92"/>
        <path class="cls-4" d="M120.14,181.87v9.92"/>
        <path class="cls-4" d="M85.06,107.11l7,7"/>
        <path class="cls-4" d="M148.22,170.26l7,7"/>
        <path class="cls-4" d="M70.52,142.18h9.92"/>
        <path class="cls-4" d="M159.83,142.18h9.92"/>
        <path class="cls-4" d="M92.05,170.26l-7,7"/>
        <path class="cls-4" d="M155.21,107.11l-7,7"/>
      </g>
      <path class="cls-5" d="M194.2,47.05c-1.93,0-3.51-1.56-3.52-3.49,0-.81.27-1.59.78-2.22L226.15,5.6c.63-.73,1.74-.81,2.47-.18.51.44.72,1.14.54,1.79l-6.73,21.09c-.68,1.81.24,3.83,2.06,4.51.4.15.82.22,1.24.22h24.52c1.93,0,3.51,1.56,3.52,3.49,0,.81-.27,1.59-.78,2.22l-34.69,35.74c-.63.73-1.74.81-2.47.18-.51-.44-.72-1.14-.54-1.79l6.73-21.09c.68-1.81-.24-3.83-2.06-4.51-.4-.15-.82-.22-1.24-.22h-24.52Z"/>
      <g>
        <text class="cls-2" transform="translate(283.62 186.83)"><tspan class="cls-7" x="0" y="0">P</tspan><tspan x="72.96" y="0">ak</tspan></text>
        <g>
          <path class="cls-1" d="M291.78,186.83v-84.72h18.84v84.72h-18.84ZM306.18,155.99v-14.64h18.24c2.32,0,4.44-.48,6.36-1.44s3.44-2.36,4.56-4.2c1.12-1.84,1.68-4.08,1.68-6.72s-.56-4.76-1.68-6.6c-1.12-1.84-2.64-3.24-4.56-4.2s-4.04-1.44-6.36-1.44h-18.24v-14.64h21c5.36,0,10.2,1.08,14.52,3.24,4.32,2.16,7.74,5.26,10.26,9.3,2.52,4.04,3.78,8.82,3.78,14.34s-1.26,10.3-3.78,14.34c-2.52,4.04-5.94,7.16-10.26,9.36-4.32,2.2-9.16,3.3-14.52,3.3h-21Z"/>
          <path class="cls-1" d="M387.42,188.03c-5.36,0-10.14-1.32-14.34-3.96-4.2-2.64-7.52-6.24-9.96-10.8-2.44-4.56-3.66-9.76-3.66-15.6s1.22-11.04,3.66-15.6c2.44-4.56,5.76-8.16,9.96-10.8,4.2-2.64,8.98-3.96,14.34-3.96,3.92,0,7.46.76,10.62,2.28,3.16,1.52,5.74,3.62,7.74,6.3,2,2.68,3.12,5.74,3.36,9.18v25.2c-.24,3.44-1.34,6.5-3.3,9.18-1.96,2.68-4.54,4.78-7.74,6.3-3.2,1.52-6.76,2.28-10.68,2.28ZM391.14,171.47c3.92,0,7.08-1.3,9.48-3.9,2.4-2.6,3.6-5.9,3.6-9.9,0-2.72-.54-5.12-1.62-7.2-1.08-2.08-2.6-3.7-4.56-4.86-1.96-1.16-4.22-1.74-6.78-1.74s-4.82.58-6.78,1.74c-1.96,1.16-3.52,2.78-4.68,4.86-1.16,2.08-1.74,4.48-1.74,7.2s.56,5,1.68,7.08c1.12,2.08,2.68,3.72,4.68,4.92,2,1.2,4.24,1.8,6.72,1.8ZM403.5,186.83v-15.72l2.76-14.16-2.76-14.16v-14.28h18v58.32h-18Z"/>
          <path class="cls-1" d="M434.46,186.83v-87.12h18.36v87.12h-18.36ZM471.78,186.83l-20.4-30.24,20.28-28.08h20.52l-24.48,31.56.6-7.56,25.08,34.32h-21.6Z"/>
        </g>
      </g>
      <text class="cls-2" transform="translate(504.37 186.83)"><tspan class="cls-8" x="0" y="0">S</tspan><tspan x="69.6" y="0">olar</tspan><tspan class="cls-6" x="294.71" y="0">T</tspan><tspan x="357.47" y="0">ech</tspan></text>
    </g>
  </g>
</svg>